<?xml version="1.0" encoding="utf-8"?>
<!-- Generator: Adobe Illustrator 21.0.0, SVG Export Plug-In . SVG Version: 6.00 Build 0)  -->
<svg version="1.1" id="Camada_1" xmlns="http://www.w3.org/2000/svg" xmlns:xlink="http://www.w3.org/1999/xlink" x="0px" y="0px"
	 viewBox="0 0 145 196" style="enable-background:new 0 0 145 196;" xml:space="preserve">
<style type="text/css">
	.st0{fill:#F5911A;}
</style>
<g>
	<path class="st0" d="M51.4,82.2c-2.3,0.1-4.3,1.1-5.8,2.6c-1.6,1.6-2.7,3.9-2.7,6.4v31.2c0,2.5,1,4.8,2.7,6.4
		c1.6,1.6,3.9,2.7,6.4,2.7h44.6c2.5,0,4.8-1,6.4-2.7c1.6-1.6,2.7-3.9,2.7-6.4V91.3c0-2.5-1-4.8-2.7-6.4c-1.5-1.5-3.6-2.5-5.8-2.6
		c1.2-9.5-2.5-16.3-8.3-20.5c-4.2-3-9.4-4.4-14.6-4.4c-5.2,0-10.4,1.5-14.6,4.4C53.9,65.9,50.2,72.7,51.4,82.2z M99.9,91.3v31.2
		c0,0.9-0.4,1.8-1,2.4c-0.6,0.6-1.5,1-2.4,1H51.9c-0.9,0-1.8-0.4-2.4-1c-0.6-0.6-1-1.5-1-2.4V91.3c0-0.9,0.4-1.8,1-2.4
		c0.6-0.6,1.5-1,2.4-1h44.6c0.9,0,1.8,0.4,2.4,1C99.5,89.5,99.9,90.3,99.9,91.3z M62.9,66.4c3.2-2.2,7.2-3.4,11.3-3.4
		c4.1,0,8.1,1.1,11.3,3.4c4.3,3,6.9,8.3,5.8,15.8H57.1C56,74.7,58.7,69.5,62.9,66.4z"/>
	<path class="st0" d="M75.5,104.8l0-4.6H73v4.6c-1.8,0.6-3.1,2.2-3.1,4.2c0,2.4,2,4.4,4.4,4.4s4.4-2,4.4-4.4
		C78.7,107.1,77.3,105.4,75.5,104.8z"/>
	<path class="st0" d="M144.2,38.2c0-1.5-1.2-2.8-2.8-2.9l0,0c-0.1,0-42.4-0.6-66.7-26.7c-0.1-0.1-0.2-0.2-0.3-0.3
		c-1.2-1.1-3-1-4,0.2l0,0C47.1,33.6,7.2,35.2,3.8,35.3c-0.1,0-0.1,0-0.2,0c-1.6,0-2.9,1.3-2.9,2.9v87.7c0,0.2,0,0.5,0.1,0.7l0,0
		c4.2,18,20.7,33.3,36.7,44.4c15.3,10.6,30.4,17.4,33.5,18.8l0,0c0.7,0.4,1.7,0.5,2.5,0.1l0,0c2.5-1.1,18-8,33.8-18.9
		c16-11.1,32.4-26.3,36.7-44.2c0.1-0.3,0.1-0.5,0.1-0.8L144.2,38.2L144.2,38.2z M138.5,125.5c-3.9,16.1-19.3,30.3-34.3,40.7
		c-13.8,9.6-27.3,15.9-31.7,17.9c-4.4-2-17.9-8.3-31.7-17.9c-15-10.4-30.4-24.5-34.3-40.7V40.9c9.9-0.6,43.8-4.4,66-26.4
		c22.2,22,56.1,25.8,66,26.4V125.5z"/>
</g>
</svg>
