<?xml version="1.0" encoding="utf-8"?>
<!-- Generator: Adobe Illustrator 21.0.0, SVG Export Plug-In . SVG Version: 6.00 Build 0)  -->
<svg version="1.1" id="Camada_1" xmlns="http://www.w3.org/2000/svg" xmlns:xlink="http://www.w3.org/1999/xlink" x="0px" y="0px"
	 viewBox="0 0 175 178" style="enable-background:new 0 0 175 178;" xml:space="preserve">
<style type="text/css">
	.st0{fill:#F5911A;}
</style>
<g>
	<path class="st0" d="M87.5,176.5c-48,0-87-39-87-87s39-87,87-87s87,39,87,87S135.5,176.5,87.5,176.5z M87.5,8.6
		C42.9,8.6,6.6,44.9,6.6,89.5s36.3,80.9,80.9,80.9c44.6,0,80.9-36.3,80.9-80.9S132.1,8.6,87.5,8.6z"/>
	<path class="st0" d="M54.1,88.8c-0.6-0.6-0.9-1.3-0.9-2.1c0-0.8,0.3-1.6,0.9-2.1c0.6-0.6,1.3-0.9,2.1-0.9c0.8,0,1.6,0.3,2.1,0.9
		L78.8,105l43.1-43.1c0.6-0.6,1.3-0.9,2.1-0.9s1.6,0.3,2.1,0.9s0.9,1.3,0.9,2.1c0,0.8-0.3,1.6-0.9,2.1l-47.4,47.4L54.1,88.8z"/>
</g>
</svg>
