<?xml version="1.0" encoding="utf-8"?>
<!-- Generator: Adobe Illustrator 21.0.0, SVG Export Plug-In . SVG Version: 6.00 Build 0)  -->
<svg version="1.1" id="Camada_1" xmlns="http://www.w3.org/2000/svg" xmlns:xlink="http://www.w3.org/1999/xlink" x="0px" y="0px"
	 viewBox="0 0 175 178" style="enable-background:new 0 0 175 178;" xml:space="preserve">
<style type="text/css">
	.st0{fill:#F5911A;}
</style>
<g>
	<g>
		<g>
			<g>
				<path class="st0" d="M87.5,176c-47.9,0-87-39.1-87-87s39.1-87,87-87s87,39.1,87,87S135.4,176,87.5,176z M87.5,7.3
					C42.4,7.3,5.8,43.9,5.8,89s36.6,81.7,81.7,81.7s81.7-36.6,81.7-81.7S132.6,7.3,87.5,7.3z"/>
			</g>
		</g>
	</g>
	<path class="st0" d="M80.2,141.9c-0.2,0-0.5,0-0.7-0.2c-1.1-0.4-2-1.4-2-2.5v-36H54.5c-0.9,0-1.8-0.5-2.3-1.4
		c-0.5-0.9-0.5-1.8,0-2.7l38.7-64.5c0.5-1.1,1.8-1.6,3-1.2c1.1,0.4,2,1.4,2,2.5v36h23.1c0.9,0,1.8,0.5,2.3,1.4
		c0.5,0.9,0.5,1.8,0,2.7l-38.7,64.6C82,141.6,81.3,141.9,80.2,141.9z M59.3,97.9h21.1c1.4,0,2.7,1.2,2.7,2.7v29.1l31.2-52.2H93.2
		c-1.4,0-2.7-1.2-2.7-2.7V45.7L59.3,97.9z"/>
</g>
</svg>
